<?xml version="1.0" standalone="no"?>
<!DOCTYPE svg PUBLIC "-//W3C//DTD SVG 20010904//EN"
 "http://www.w3.org/TR/2001/REC-SVG-20010904/DTD/svg10.dtd">
<svg version="1.0" xmlns="http://www.w3.org/2000/svg"
 width="597.000000pt" height="597.000000pt" viewBox="0 0 597.000000 597.000000"
 preserveAspectRatio="xMidYMid meet">
<metadata>
Created by potrace 1.14, written by Peter Selinger 2001-2017
</metadata>
<g transform="translate(0.000000,597.000000) scale(0.100000,-0.100000)"
fill="#000000" stroke="none">
<path d="M2959 3616 c-58 -29 -62 -98 -8 -139 52 -38 123 5 121 74 -1 26 -31
67 -51 70 -3 0 -13 2 -22 4 -9 1 -27 -2 -40 -9z"/>
<path d="M2859 3527 c-24 -20 -49 -57 -49 -71 0 -9 74 5 88 17 7 5 10 17 6 26
-3 9 -7 21 -8 28 -4 22 -12 22 -37 0z"/>
<path d="M3081 3508 c-9 -26 -8 -35 5 -49 9 -10 19 -38 21 -63 4 -36 0 -54
-21 -92 -30 -54 -32 -69 -10 -78 22 -8 21 -9 45 17 57 59 71 155 33 229 -13
26 -33 52 -43 57 -16 9 -21 6 -30 -21z"/>
<path d="M2774 3420 c-21 -10 -50 -28 -63 -40 l-24 -23 26 -14 c23 -12 31 -11
64 7 53 28 100 26 155 -9 45 -28 47 -29 63 -11 22 25 5 51 -53 80 -58 29 -119
33 -168 10z"/>
<path d="M3197 3383 c3 -49 21 -65 61 -57 18 4 32 9 32 13 -1 16 -73 81 -90
81 -4 0 -5 -17 -3 -37z"/>
<path d="M2642 3319 c-38 -25 -47 -60 -26 -104 11 -24 25 -36 46 -40 72 -16
126 50 93 114 -8 17 -17 31 -18 31 -1 0 -16 4 -33 9 -24 7 -38 5 -62 -10z"/>
<path d="M3255 3310 c-43 -17 -62 -68 -40 -110 16 -32 33 -40 81 -40 36 0 57
21 69 72 6 22 1 33 -23 58 -31 31 -51 35 -87 20z"/>
<path d="M2865 3260 c-33 -12 -69 -97 -70 -162 0 -47 5 -63 30 -99 37 -52 48
-57 63 -24 10 21 8 32 -8 63 -27 50 -26 101 5 146 39 58 29 94 -20 76z"/>
<path d="M2715 3163 c-39 -9 -39 -22 -1 -58 21 -19 42 -35 47 -35 15 0 10 70
-5 86 -8 8 -16 13 -18 13 -2 -1 -12 -3 -23 -6z"/>
<path d="M2971 3156 c-16 -19 -4 -42 36 -67 31 -19 93 -40 118 -40 46 0 155
57 155 81 0 4 -11 12 -25 18 -21 10 -32 8 -63 -8 -49 -27 -98 -25 -151 5 -50
29 -55 30 -70 11z"/>
<path d="M2932 3011 c-75 -58 -17 -171 73 -141 56 18 71 80 31 127 -28 32 -73
38 -104 14z"/>
<path d="M3070 3015 c-7 -9 -9 -23 -4 -37 4 -13 7 -26 6 -30 -8 -31 69 31 81
65 5 14 0 17 -32 17 -22 0 -44 -6 -51 -15z"/>
<path d="M2133 2779 c-43 -16 -54 -76 -20 -107 10 -9 42 -19 70 -22 37 -4 52
-9 52 -20 0 -12 -14 -15 -64 -16 -61 0 -64 -1 -67 -26 -2 -26 -2 -26 69 -26
83 0 101 7 115 45 20 58 -15 93 -92 93 -80 0 -67 34 14 36 71 2 72 3 68 27 -3
20 -9 22 -63 23 -33 1 -70 -2 -82 -7z"/>
<path d="M2337 2769 c-5 -20 8 -33 33 -34 12 0 16 -18 18 -87 3 -86 3 -88 27
-88 24 0 25 3 26 68 2 105 2 107 24 107 14 0 21 8 23 26 l3 27 -75 -1 c-64 0
-75 -3 -79 -18z"/>
<path d="M2588 2778 c-13 -10 -73 -160 -81 -202 -3 -17 36 -19 48 -2 18 24 94
27 117 4 10 -10 28 -18 39 -18 17 0 20 5 16 23 -11 48 -68 191 -80 199 -18 11
-41 10 -59 -4z m52 -94 c0 -7 3 -19 6 -28 5 -13 -1 -16 -25 -16 -34 0 -37 8
-19 57 11 31 14 33 25 17 7 -10 13 -23 13 -30z"/>
<path d="M2780 2674 l0 -114 25 0 c22 0 25 4 25 35 0 19 2 35 5 35 3 0 31 -16
61 -35 56 -36 75 -38 69 -7 -2 9 -4 20 -4 25 -1 4 -12 12 -26 17 -27 10 -34
30 -11 30 34 0 51 51 30 92 -15 30 -44 38 -126 36 l-48 -1 0 -113z m125 46 c0
-10 -12 -16 -37 -18 -32 -3 -38 0 -38 17 0 17 6 20 38 18 25 -1 37 -7 37 -17z"/>
<path d="M3010 2760 c0 -21 5 -26 23 -26 21 1 22 -3 25 -86 3 -86 3 -88 27
-88 25 0 25 1 25 90 0 67 3 90 13 89 28 -3 37 2 37 25 0 24 -2 25 -75 24 -75
-1 -75 -1 -75 -28z"/>
<path d="M3223 2763 c-18 -17 -22 -29 -17 -50 8 -32 8 -38 1 -76 -5 -22 0 -35
17 -52 20 -20 34 -24 95 -24 69 0 71 1 71 24 0 22 -5 25 -37 26 -21 1 -51 0
-66 -1 -23 -1 -28 2 -25 17 3 15 14 19 66 21 58 3 62 4 62 27 0 24 -3 25 -66
25 -57 0 -65 2 -62 18 3 14 14 17 63 17 57 0 60 1 63 26 l3 27 -73 -1 c-62 0
-76 -4 -95 -24z"/>
<path d="M3448 2777 c-2 -6 -4 -57 -3 -112 0 -100 1 -100 25 -100 21 0 25 5
25 30 0 36 11 35 76 -6 25 -16 49 -29 52 -29 4 0 7 13 7 28 0 22 -7 32 -32 44
l-33 16 26 10 c43 17 54 76 19 107 -25 23 -156 32 -162 12z m119 -50 c20 -14
5 -27 -31 -27 -39 0 -50 8 -35 26 12 14 48 15 66 1z"/>
<path d="M3716 2781 c-29 -11 -45 -50 -34 -83 13 -36 35 -48 92 -48 25 0 47
-4 50 -9 11 -17 -20 -29 -74 -28 -53 2 -55 1 -58 -26 l-3 -27 73 4 c40 2 78 4
84 5 17 2 33 47 28 78 -7 39 -30 53 -85 53 -49 0 -73 15 -48 31 7 4 35 6 61 4
38 -2 50 1 58 14 5 9 6 22 2 28 -8 11 -116 15 -146 4z"/>
<path d="M2619 2498 c-1 -16 -1 -106 0 -130 1 -28 31 -22 31 7 0 25 26 46 48
38 6 -3 12 -18 12 -35 0 -23 4 -29 17 -26 15 3 18 16 19 81 1 74 -1 78 -20 75
-17 -2 -20 -9 -18 -31 3 -26 1 -28 -25 -25 -22 2 -29 9 -31 31 -3 27 -31 39
-33 15z"/>
<path d="M2782 2490 c-22 -21 -27 -54 -16 -97 12 -44 112 -54 134 -13 17 32
12 88 -10 110 -26 26 -80 26 -108 0z m92 -46 c8 -30 -8 -54 -35 -54 -24 0 -48
26 -44 47 2 10 4 21 4 26 1 4 16 7 35 7 28 0 35 -4 40 -26z"/>
<path d="M2929 2488 c-4 -104 10 -132 67 -132 49 0 64 23 64 96 0 50 -3 58
-19 58 -16 0 -18 -7 -17 -46 2 -56 -15 -84 -41 -68 -12 8 -19 25 -20 55 -1 24
-2 47 -2 52 -2 18 -31 5 -32 -15z"/>
<path d="M3087 2489 c-18 -25 -11 -56 17 -71 11 -6 22 -11 24 -10 10 7 52 0
47 -8 -3 -5 -26 -10 -51 -10 -37 0 -44 -3 -44 -20 0 -17 7 -20 46 -20 61 0 84
14 84 50 0 32 -23 50 -64 50 -32 0 -45 20 -14 21 13 1 32 2 43 3 11 1 21 4 23
9 7 22 -3 27 -47 27 -39 0 -53 -5 -64 -21z"/>
<path d="M3241 2501 c-16 -11 -19 -117 -3 -133 6 -6 34 -13 61 -16 47 -4 51
-3 51 17 0 18 -6 21 -39 21 -45 0 -67 19 -24 21 15 1 36 1 46 0 11 -2 17 5 17
18 0 18 -6 21 -39 21 -22 0 -43 5 -46 10 -7 11 3 13 53 10 26 -1 32 2 32 19 0
18 -6 21 -47 21 -27 0 -54 -4 -62 -9z"/>
<path d="M2225 2431 c-7 -12 0 -13 125 -13 141 1 158 2 135 11 -32 13 -252 14
-260 2z"/>
<path d="M3459 2429 c-16 -10 -13 -11 61 -11 156 -1 230 3 230 12 0 12 -272
11 -291 -1z"/>
</g>
</svg>
